<svg width="166" height="214" viewBox="0 0 166 214" fill="none" xmlns="http://www.w3.org/2000/svg">
<path d="M90.4454 50.3093C90.4454 35.8623 74.2699 35.9303 73.4243 50.3093C68.4148 50.3093 61.1406 50.7744 60.6584 56.0846C65.1538 56.0846 73.9025 54.6295 77.6795 52.7407C77.4031 50.807 76.4635 48.604 76.4635 46.6619C76.4635 42.0648 84.5317 40.6097 86.4945 44.5341C87.9122 47.3702 85.5566 50.2496 86.4945 52.4372C86.8264 53.2124 95.0272 52.9508 96.2207 53.349C96.0686 53.8047 96.0686 53.8047 95.9165 54.2609C100.092 56.3485 105.726 57.0296 110.203 58.8202C122.131 63.5913 130.782 72.3909 138.47 81.6165C142.858 86.8829 145.999 94.173 148.196 100.765C148.79 102.546 150.134 110.796 151.54 110.796C151.54 113.836 151.54 113.836 151.54 116.875C160.458 116.875 147.65 89.722 145.157 85.5675C133.594 66.2967 113.547 53.197 90.4454 50.3093Z" fill="black" stroke="#384450" stroke-width="0.00102171" stroke-linecap="round" stroke-linejoin="round"/>
<path d="M61.8935 10.5072C65.6125 9.08532 59.7662 17.9754 59.7662 20.8418C59.7662 25.3129 74.6577 38.8516 61.8935 43.6381C56.7011 45.5855 63.2906 35.6581 63.1095 33.3042C62.5544 26.0839 48.3583 15.6849 61.8935 10.5072Z" fill="black" stroke="#444E59" stroke-width="0.00102171" stroke-linecap="round" stroke-linejoin="round"/>
<path d="M129.339 129.045C112.002 121.63 84.1786 142.112 67.3605 142.112C57.2721 142.112 52.5259 128.925 42.8772 126.995C42.0168 126.68 38.3842 126.737 35.6078 126.819C34.0793 126.863 11.6594 126.929 6.8743 126.914C-2.11673 126.914 -2.25555 115.974 6.26641 114.757C6.26641 116.428 6.26641 116.428 6.26641 118.1C2.60929 118.1 1.72199 123.557 5.35456 123.571C56.4183 123.773 107.482 123.875 158.547 123.875C163.64 123.875 161.847 117.859 154.958 117.428C154.907 116.021 154.76 115.814 154.73 114.896C168.367 114.189 169.104 127.91 154.307 126.791C144.008 126.704 133.015 126.914 131.799 126.914C132.099 127.817 133.864 128.191 131.799 130.562C129.67 132.737 117.649 138.626 115.385 139.985C103.596 147.058 92.5421 155.085 81.3425 163.085C76.1447 166.798 71.1932 172.415 65.5368 175.243C71.8991 181.606 70.7304 181.296 63.4096 188.617C62.7947 189.231 62.1995 190.137 61.2817 190.137C60.6622 191.995 57.8662 194.184 56.4183 195.608C50.5436 201.385 45.0316 207.555 38.7895 212.933C37.0516 214.43 36.0539 211.718 36.0539 210.806C36.0539 205.48 63.2587 188.764 66.1451 180.106C64.9516 179.51 58.4266 174.331 60.674 174.331C61.2012 171.167 58.9136 170.861 57.6343 173.419C53.3519 169.137 44.1582 165.312 41.525 160.045C36.8208 161.613 6.81648 186.258 4.74667 177.978C15.5296 172.587 47.908 155.352 47.908 144.24C47.908 139.205 37.3297 133.054 34.2302 129.954C33.2219 129.058 32.1112 126.942 32.442 126.923C33.5846 126.857 35.8876 126.799 37.093 126.793C38.8297 133.738 58.6698 139.754 49.7317 150.927C47.9311 153.178 45.7997 155.487 43.9565 157.614C45.9607 159.618 61.2012 172.811 63.1054 172.811C66.0392 172.811 75.369 162.854 78.3028 160.653C87.2651 153.932 118.142 129.042 129.367 129.042" fill="black"/>
<path d="M129.339 129.045C112.002 121.63 84.1786 142.112 67.3605 142.112C57.2721 142.112 52.5259 128.925 42.8772 126.995C42.0168 126.68 38.3842 126.737 35.6078 126.819C34.0793 126.863 11.6594 126.929 6.8743 126.914C-2.11673 126.914 -2.25555 115.974 6.26641 114.757C6.26641 116.428 6.26641 116.428 6.26641 118.1C2.60929 118.1 1.72199 123.557 5.35456 123.571C56.4183 123.773 107.482 123.875 158.547 123.875C163.64 123.875 161.847 117.859 154.958 117.428C154.907 116.021 154.76 115.814 154.73 114.896C168.367 114.189 169.104 127.91 154.307 126.791C144.008 126.704 133.015 126.914 131.799 126.914C132.099 127.817 133.864 128.191 131.799 130.562C129.67 132.737 117.649 138.626 115.385 139.985C103.596 147.058 92.5421 155.085 81.3425 163.085C76.1447 166.798 71.1932 172.415 65.5368 175.243C71.8991 181.606 70.7304 181.296 63.4096 188.617C62.7947 189.231 62.1995 190.137 61.2817 190.137C60.6622 191.995 57.8662 194.184 56.4183 195.608C50.5436 201.385 45.0316 207.555 38.7895 212.933C37.0516 214.43 36.0539 211.718 36.0539 210.806C36.0539 205.48 63.2587 188.764 66.1451 180.106C64.9516 179.51 58.4266 174.331 60.674 174.331C61.2012 171.167 58.9136 170.861 57.6343 173.419C53.3519 169.137 44.1582 165.312 41.525 160.045C36.8208 161.613 6.81648 186.258 4.74667 177.978C15.5296 172.587 47.908 155.352 47.908 144.24C47.908 139.205 37.3297 133.054 34.2302 129.954C33.2219 129.058 32.1112 126.942 32.442 126.923C33.5846 126.857 35.8876 126.799 37.093 126.793C38.8297 133.738 58.6698 139.754 49.7317 150.927C47.9311 153.178 45.7997 155.487 43.9565 157.614C45.9607 159.618 61.2012 172.811 63.1054 172.811C66.0392 172.811 75.369 162.854 78.3028 160.653C87.2651 153.932 118.142 129.042 129.367 129.042" stroke="#3D4852" stroke-width="0.00102171" stroke-linecap="round" stroke-linejoin="round"/>
<path d="M109.925 114.751C109.925 116.271 109.925 116.271 109.925 117.79C80.2897 117.79 80.2897 117.79 50.6547 117.79C51.6678 116.878 52.3329 115.125 53.6938 115.055C72.4132 114.095 91.1816 114.852 109.925 114.751Z" fill="black" stroke="#222E3A" stroke-width="0.00102171" stroke-linecap="round" stroke-linejoin="round"/>
<path d="M81.0268 61.2624C79.5723 61.334 80.0315 59.2736 81.0268 58.5268C84.8742 55.6415 89.5436 60.4884 84.3707 60.9582C80.7505 61.2878 82.799 61.1754 81.0268 61.2624Z" fill="black" stroke="#59626A" stroke-width="0.00102171" stroke-linecap="round" stroke-linejoin="round"/>
<path d="M81.9413 0.772701C85.539 -2.25222 80.475 7.69889 80.7259 11.715C81.1419 18.3737 91.8297 21.7773 84.6775 29.952C84.2242 30.4698 82.8715 32.9917 81.9413 32.9917C78.3312 32.9917 83.4615 25.7454 83.4615 22.6572C83.4615 12.8451 67.5777 12.8505 81.9413 0.772701Z" fill="black" stroke="#323D49" stroke-width="0.00102171" stroke-linecap="round" stroke-linejoin="round"/>
<path d="M81.3374 61.2562C83.1558 61.0746 86.8085 61.1195 86.8085 58.2165C89.2027 58.2165 88.5423 60.3071 90.7601 60.6485C94.7992 61.2698 94.2986 59.7367 97.4472 59.7367C97.4472 60.3444 97.4472 60.3444 97.4472 60.9521C112.946 60.9521 131.254 76.2879 137.872 89.5237C140.625 95.0286 143.735 100.947 144.864 107.153C144.89 107.3 145.754 109.452 144.559 109.584C141.048 109.975 139.399 98.957 137.569 95.9067C130.912 84.8124 122.252 72.26 109.301 67.9434C109.301 67.6392 109.301 67.6392 109.301 67.3351C107.384 67.3351 105.63 66.1114 103.83 65.5113C103.83 64.9036 103.83 64.9036 103.83 64.2959C96.4448 64.2959 88.8784 61.6752 81.3374 61.2562Z" fill="black" stroke="#46515B" stroke-width="0.00102171" stroke-linecap="round" stroke-linejoin="round"/>
<path d="M55.5037 179.504C56.1138 179.231 57.3097 179.145 57.6316 180.111C60.2571 187.989 49.7775 182.062 55.5037 179.504Z" fill="black" stroke="#283340" stroke-width="0.00102171" stroke-linecap="round" stroke-linejoin="round"/>
<path d="M102.63 10.4999C105.943 7.65727 100.806 17.7214 100.806 21.4428C100.806 27.7009 115.564 37.7514 102.63 43.6309C98.8083 45.3682 104.149 35.4561 104.149 33.2969C104.149 23.0505 88.0856 22.9783 102.63 10.4999Z" fill="black" stroke="#46515C" stroke-width="0.00102171" stroke-linecap="round" stroke-linejoin="round"/>
<path d="M58.2398 53.6565C58.2398 59.0188 46.3857 62.6455 41.5228 66.1189C32.4268 72.6155 21.5709 83.4199 17.8144 94.6899C16.5436 98.5025 14.0368 106.908 13.2551 110.496C12.2757 114.991 13.5696 113.131 12.9512 117.487C10.8235 117.638 10.8235 117.638 8.6958 117.79C8.6958 87.5809 33.2913 66.1308 58.2398 53.6565Z" fill="black" stroke="#4E5862" stroke-width="0.00102171" stroke-linecap="round" stroke-linejoin="round"/>
<path d="M155.801 117.61C79.5091 117.61 82.5488 118.093 6.25671 118.093C6.25671 116.421 6.25671 116.421 6.25671 114.749C6.70122 114.749 7.70994 114.49 8.85458 114.54C10.9302 114.632 10.709 114.704 12.6397 114.749C33.1566 114.901 33.1566 114.901 53.673 115.053C52.1535 116.421 52.1535 116.421 50.6339 117.788C80.2689 117.788 80.2689 117.788 109.904 117.788C109.904 116.269 109.904 116.269 109.904 114.749C130.573 114.749 130.573 114.749 151.242 114.749C151.242 111.596 151.242 110.798 151.546 110.798C151.546 113.837 151.546 113.837 151.546 116.877C153.155 116.877 154.585 115.446 154.585 113.837C155.147 115.524 153.521 117.458 155.801 117.61Z" fill="black" stroke="#4B535D" stroke-width="0.00102171" stroke-linecap="round" stroke-linejoin="round"/>
</svg>
