<svg width="478" height="218" viewBox="0 0 478 218" fill="none" xmlns="http://www.w3.org/2000/svg">
<path d="M90.4454 50.3093C90.4454 35.8623 74.2699 35.9303 73.4243 50.3093C68.4148 50.3093 61.1406 50.7744 60.6584 56.0846C65.1537 56.0846 73.9025 54.6295 77.6795 52.7407C77.4031 50.807 76.4635 48.604 76.4635 46.6619C76.4635 42.0648 84.5317 40.6097 86.4945 44.5341C87.9122 47.3702 85.5566 50.2496 86.4945 52.4372C86.8264 53.2124 95.0272 52.9508 96.2207 53.349C96.0686 53.8047 96.0686 53.8047 95.9165 54.2609C100.092 56.3485 105.726 57.0296 110.203 58.8202C122.131 63.5913 130.782 72.3909 138.47 81.6165C142.858 86.8829 145.999 94.173 148.196 100.765C148.79 102.546 150.134 110.796 151.54 110.796C151.54 113.836 151.54 113.836 151.54 116.875C160.458 116.875 147.65 89.722 145.157 85.5675C133.594 66.2967 113.547 53.197 90.4454 50.3093Z" fill="black" stroke="#384450" stroke-width="0.00102171" stroke-linecap="round" stroke-linejoin="round"/>
<path d="M61.8935 10.5072C65.6125 9.08532 59.7662 17.9754 59.7662 20.8418C59.7662 25.3129 74.6577 38.8516 61.8935 43.6381C56.7011 45.5855 63.2906 35.6581 63.1095 33.3042C62.5544 26.0839 48.3583 15.6849 61.8935 10.5072Z" fill="black" stroke="#444E59" stroke-width="0.00102171" stroke-linecap="round" stroke-linejoin="round"/>
<path d="M129.339 129.045C112.002 121.63 84.1786 142.112 67.3605 142.112C57.2721 142.112 52.5259 128.925 42.8772 126.995C42.0168 126.68 38.3842 126.737 35.6078 126.819C34.0793 126.863 11.6594 126.929 6.8743 126.914C-2.11673 126.914 -2.25555 115.974 6.26641 114.757C6.26641 116.428 6.26641 116.428 6.26641 118.1C2.60929 118.1 1.72199 123.557 5.35456 123.571C56.4183 123.773 107.482 123.875 158.547 123.875C163.64 123.875 161.847 117.859 154.958 117.428C154.907 116.021 154.76 115.814 154.73 114.896C168.367 114.189 169.104 127.91 154.307 126.791C144.008 126.704 133.015 126.914 131.799 126.914C132.099 127.817 133.864 128.191 131.799 130.562C129.67 132.737 117.649 138.626 115.385 139.985C103.596 147.058 92.5421 155.085 81.3425 163.085C76.1447 166.798 71.1932 172.415 65.5368 175.243C71.8991 181.606 70.7304 181.296 63.4096 188.617C62.7947 189.231 62.1995 190.137 61.2817 190.137C60.6622 191.995 57.8662 194.184 56.4183 195.608C50.5436 201.385 45.0316 207.555 38.7895 212.933C37.0516 214.43 36.0539 211.718 36.0539 210.806C36.0539 205.48 63.2587 188.764 66.1451 180.106C64.9516 179.51 58.4266 174.331 60.674 174.331C61.2012 171.167 58.9136 170.861 57.6343 173.419C53.3519 169.137 44.1582 165.312 41.525 160.045C36.8208 161.613 6.81648 186.258 4.74667 177.978C15.5296 172.587 47.908 155.352 47.908 144.24C47.908 139.205 37.3297 133.054 34.2302 129.954C33.2219 129.058 32.1112 126.942 32.442 126.923C33.5846 126.857 35.8876 126.799 37.093 126.793C38.8297 133.738 58.6698 139.754 49.7317 150.927C47.9311 153.178 45.7997 155.487 43.9565 157.614C45.9607 159.618 61.2012 172.811 63.1054 172.811C66.0392 172.811 75.369 162.854 78.3028 160.653C87.2651 153.932 118.142 129.042 129.367 129.042" fill="black"/>
<path d="M129.339 129.045C112.002 121.63 84.1786 142.112 67.3605 142.112C57.2721 142.112 52.5259 128.925 42.8772 126.995C42.0168 126.68 38.3842 126.737 35.6078 126.819C34.0793 126.863 11.6594 126.929 6.8743 126.914C-2.11673 126.914 -2.25555 115.974 6.26641 114.757C6.26641 116.428 6.26641 116.428 6.26641 118.1C2.60929 118.1 1.72199 123.557 5.35456 123.571C56.4183 123.773 107.482 123.875 158.547 123.875C163.64 123.875 161.847 117.859 154.958 117.428C154.907 116.021 154.76 115.814 154.73 114.896C168.367 114.189 169.104 127.91 154.307 126.791C144.008 126.704 133.015 126.914 131.799 126.914C132.099 127.817 133.864 128.191 131.799 130.562C129.67 132.737 117.649 138.626 115.385 139.985C103.596 147.058 92.5421 155.085 81.3425 163.085C76.1447 166.798 71.1932 172.415 65.5368 175.243C71.8991 181.606 70.7304 181.296 63.4096 188.617C62.7947 189.231 62.1995 190.137 61.2817 190.137C60.6622 191.995 57.8662 194.184 56.4183 195.608C50.5436 201.385 45.0316 207.555 38.7895 212.933C37.0516 214.43 36.0539 211.718 36.0539 210.806C36.0539 205.48 63.2587 188.764 66.1451 180.106C64.9516 179.51 58.4266 174.331 60.674 174.331C61.2012 171.167 58.9136 170.861 57.6343 173.419C53.3519 169.137 44.1582 165.312 41.525 160.045C36.8208 161.613 6.81648 186.258 4.74667 177.978C15.5296 172.587 47.908 155.352 47.908 144.24C47.908 139.205 37.3297 133.054 34.2302 129.954C33.2219 129.058 32.1112 126.942 32.442 126.923C33.5846 126.857 35.8876 126.799 37.093 126.793C38.8297 133.738 58.6698 139.754 49.7317 150.927C47.9311 153.178 45.7997 155.487 43.9565 157.614C45.9607 159.618 61.2012 172.811 63.1054 172.811C66.0392 172.811 75.369 162.854 78.3028 160.653C87.2651 153.932 118.142 129.042 129.367 129.042" stroke="#3D4852" stroke-width="0.00102171" stroke-linecap="round" stroke-linejoin="round"/>
<path d="M109.925 114.751C109.925 116.271 109.925 116.271 109.925 117.79C80.2897 117.79 80.2897 117.79 50.6547 117.79C51.6678 116.878 52.3329 115.125 53.6938 115.055C72.4132 114.095 91.1816 114.852 109.925 114.751Z" fill="black" stroke="#222E3A" stroke-width="0.00102171" stroke-linecap="round" stroke-linejoin="round"/>
<path d="M81.0268 61.2624C79.5723 61.334 80.0315 59.2736 81.0268 58.5268C84.8742 55.6415 89.5436 60.4884 84.3707 60.9582C80.7505 61.2878 82.799 61.1754 81.0268 61.2624Z" fill="black" stroke="#59626A" stroke-width="0.00102171" stroke-linecap="round" stroke-linejoin="round"/>
<path d="M81.9413 0.772701C85.539 -2.25222 80.475 7.69889 80.7259 11.715C81.1419 18.3737 91.8297 21.7773 84.6775 29.952C84.2242 30.4698 82.8715 32.9917 81.9413 32.9917C78.3312 32.9917 83.4615 25.7454 83.4615 22.6572C83.4615 12.8451 67.5777 12.8505 81.9413 0.772701Z" fill="black" stroke="#323D49" stroke-width="0.00102171" stroke-linecap="round" stroke-linejoin="round"/>
<path d="M81.3374 61.2562C83.1558 61.0746 86.8085 61.1195 86.8085 58.2165C89.2027 58.2165 88.5423 60.3071 90.7601 60.6485C94.7992 61.2698 94.2986 59.7367 97.4472 59.7367C97.4472 60.3444 97.4472 60.3444 97.4472 60.9521C112.946 60.9521 131.254 76.2879 137.872 89.5237C140.625 95.0286 143.735 100.947 144.864 107.153C144.89 107.3 145.754 109.452 144.559 109.584C141.048 109.975 139.399 98.957 137.569 95.9067C130.912 84.8124 122.252 72.26 109.301 67.9434C109.301 67.6392 109.301 67.6392 109.301 67.3351C107.384 67.3351 105.63 66.1114 103.83 65.5113C103.83 64.9036 103.83 64.9036 103.83 64.2959C96.4448 64.2959 88.8784 61.6752 81.3374 61.2562Z" fill="black" stroke="#46515B" stroke-width="0.00102171" stroke-linecap="round" stroke-linejoin="round"/>
<path d="M55.5037 179.504C56.1138 179.231 57.3097 179.145 57.6316 180.111C60.2571 187.989 49.7775 182.062 55.5037 179.504Z" fill="black" stroke="#283340" stroke-width="0.00102171" stroke-linecap="round" stroke-linejoin="round"/>
<path d="M102.63 10.4999C105.943 7.65727 100.806 17.7214 100.806 21.4428C100.806 27.7009 115.564 37.7514 102.63 43.6309C98.8083 45.3682 104.149 35.4561 104.149 33.2969C104.149 23.0505 88.0856 22.9783 102.63 10.4999Z" fill="black" stroke="#46515C" stroke-width="0.00102171" stroke-linecap="round" stroke-linejoin="round"/>
<path d="M58.2398 53.6565C58.2398 59.0188 46.3857 62.6455 41.5228 66.1189C32.4268 72.6155 21.5709 83.4199 17.8144 94.6899C16.5436 98.5025 14.0368 106.908 13.2551 110.496C12.2757 114.991 13.5696 113.131 12.9512 117.487C10.8235 117.638 10.8235 117.638 8.6958 117.79C8.6958 87.5809 33.2913 66.1308 58.2398 53.6565Z" fill="black" stroke="#4E5862" stroke-width="0.00102171" stroke-linecap="round" stroke-linejoin="round"/>
<path d="M155.801 117.61C79.5091 117.61 82.5488 118.093 6.25671 118.093C6.25671 116.421 6.25671 116.421 6.25671 114.749C6.70122 114.749 7.70994 114.49 8.85458 114.54C10.9302 114.632 10.709 114.704 12.6397 114.749C33.1566 114.901 33.1566 114.901 53.673 115.053C52.1535 116.421 52.1535 116.421 50.6339 117.788C80.2689 117.788 80.2689 117.788 109.904 117.788C109.904 116.269 109.904 116.269 109.904 114.749C130.573 114.749 130.573 114.749 151.242 114.749C151.242 111.596 151.242 110.798 151.546 110.798C151.546 113.837 151.546 113.837 151.546 116.877C153.155 116.877 154.585 115.446 154.585 113.837C155.147 115.524 153.521 117.458 155.801 117.61Z" fill="black" stroke="#4B535D" stroke-width="0.00102171" stroke-linecap="round" stroke-linejoin="round"/>
<path d="M179.331 0H180.643V217.325H179.331V0Z" fill="black" stroke="#4B535D" stroke-width="0.00102171" stroke-linecap="round" stroke-linejoin="round"/>
<path d="M217.819 115.734C214.61 115.734 211.615 115.172 208.835 114.048C206.055 112.924 203.614 111.358 201.512 109.35C199.41 107.343 197.767 105.005 196.583 102.337C195.398 99.6679 194.807 96.7892 194.807 93.7004C194.807 90.6287 195.403 87.7547 196.596 85.0777C197.788 82.4007 199.431 80.058 201.525 78.0503C203.618 76.0426 206.051 74.4769 208.822 73.3532C211.594 72.2289 214.575 71.6667 217.767 71.6667C220.393 71.6667 222.881 72.0443 225.232 72.7993C227.583 73.5543 229.616 74.5585 231.332 75.8112L228.372 81.5255C227.085 80.4959 225.558 79.6977 223.79 79.1314C222.023 78.5651 220.161 78.2823 218.204 78.2823C215.888 78.2823 213.752 78.6769 211.795 79.4663C209.839 80.2557 208.136 81.3498 206.686 82.748C205.236 84.1469 204.116 85.7812 203.326 87.6517C202.537 89.5222 202.142 91.5382 202.142 93.7004C202.142 95.8625 202.537 97.8791 203.326 99.7496C204.116 101.62 205.236 103.254 206.686 104.653C208.136 106.052 209.839 107.146 211.795 107.935C213.752 108.724 215.888 109.119 218.204 109.119C220.161 109.119 222.023 108.836 223.79 108.269C225.558 107.703 227.085 106.905 228.372 105.876L231.332 111.59C229.667 112.808 227.664 113.804 225.322 114.576C222.98 115.348 220.478 115.734 217.819 115.734Z" fill="black"/>
<path d="M257.475 115.734C254.506 115.734 251.726 115.168 249.135 114.035C246.544 112.903 244.27 111.329 242.314 109.312C240.358 107.296 238.826 104.953 237.719 102.285C236.612 99.6164 236.059 96.7549 236.059 93.7003C236.059 90.6287 236.612 87.7629 237.719 85.1031C238.826 82.4433 240.358 80.1054 242.314 78.0893C244.27 76.0727 246.544 74.4981 249.135 73.3656C251.726 72.233 254.506 71.6667 257.475 71.6667C260.443 71.6667 263.223 72.233 265.814 73.3656C268.406 74.4981 270.68 76.0727 272.636 78.0893C274.592 80.1054 276.124 82.4433 277.23 85.1031C278.337 87.7629 278.89 90.6287 278.89 93.7003C278.89 96.7549 278.337 99.6164 277.23 102.285C276.124 104.953 274.592 107.296 272.636 109.312C270.68 111.329 268.406 112.903 265.814 114.035C263.223 115.168 260.443 115.734 257.475 115.734ZM257.475 109.247C259.499 109.247 261.374 108.857 263.099 108.076C264.823 107.296 266.325 106.206 267.603 104.808C268.882 103.409 269.873 101.766 270.577 99.878C271.28 97.9904 271.632 95.9312 271.632 93.7003C271.632 91.4695 271.28 89.4103 270.577 87.5227C269.873 85.6351 268.882 83.9924 267.603 82.5936C266.325 81.1953 264.823 80.1054 263.099 79.3249C261.374 78.5438 259.499 78.1533 257.475 78.1533C255.467 78.1533 253.601 78.5438 251.876 79.3249C250.151 80.1054 248.65 81.1953 247.371 82.5936C246.093 83.9924 245.102 85.6351 244.399 87.5227C243.695 89.4103 243.343 91.4695 243.343 93.7003C243.343 95.9312 243.695 97.9904 244.399 99.878C245.102 101.766 246.093 103.409 247.371 104.808C248.65 106.206 250.151 107.296 251.876 108.076C253.601 108.857 255.467 109.247 257.475 109.247Z" fill="black"/>
<path d="M288.41 114.916V72.4444H295.154L315.077 103.616V72.4444H321.821V114.916H315.077L295.154 83.7701V114.916H288.41Z" fill="black"/>
<path d="M341.219 114.916V78.4422H329.662V72.4444H359.521V78.4422H347.938V114.916H341.219Z" fill="black"/>
<path d="M367.379 114.916V72.4444H380.61C383.458 72.4444 385.933 72.942 388.036 73.9373C390.138 74.9326 391.76 76.3658 392.9 78.2362C394.042 80.1067 394.612 82.3547 394.612 84.9802C394.612 87.1595 394.205 89.1116 393.39 90.8359C392.574 92.5608 391.408 93.9892 389.889 95.1218C388.37 96.2544 386.547 97.0437 384.419 97.4899L398.396 114.916H389.851L377.135 98.2361H374.123V114.916H367.379ZM374.123 92.5732H378.628C380.498 92.5732 382.103 92.2774 383.441 91.6856C384.78 91.0933 385.805 90.2442 386.517 89.137C387.229 88.0305 387.586 86.7044 387.586 85.16C387.586 82.8606 386.8 81.0676 385.23 79.7806C383.66 78.4936 381.459 77.8498 378.628 77.8498H374.123V92.5732Z" fill="black"/>
<path d="M423.684 115.734C420.716 115.734 417.936 115.168 415.344 114.035C412.753 112.903 410.479 111.329 408.523 109.312C406.567 107.296 405.035 104.953 403.928 102.285C402.822 99.6164 402.268 96.7549 402.268 93.7003C402.268 90.6287 402.822 87.7629 403.928 85.1031C405.035 82.4433 406.567 80.1054 408.523 78.0893C410.479 76.0727 412.753 74.4981 415.344 73.3656C417.936 72.233 420.716 71.6667 423.684 71.6667C426.653 71.6667 429.433 72.233 432.024 73.3656C434.615 74.4981 436.889 76.0727 438.845 78.0893C440.801 80.1054 442.333 82.4433 443.44 85.1031C444.546 87.7629 445.1 90.6287 445.1 93.7003C445.1 96.7549 444.546 99.6164 443.44 102.285C442.333 104.953 440.801 107.296 438.845 109.312C436.889 111.329 434.615 112.903 432.024 114.035C429.433 115.168 426.653 115.734 423.684 115.734ZM423.684 109.247C425.709 109.247 427.584 108.857 429.308 108.076C431.033 107.296 432.534 106.206 433.813 104.808C435.091 103.409 436.082 101.766 436.786 99.878C437.489 97.9904 437.841 95.9312 437.841 93.7003C437.841 91.4695 437.489 89.4103 436.786 87.5227C436.082 85.6351 435.091 83.9924 433.813 82.5936C432.534 81.1953 431.033 80.1054 429.308 79.3249C427.584 78.5438 425.709 78.1533 423.684 78.1533C421.676 78.1533 419.81 78.5438 418.085 79.3249C416.361 80.1054 414.859 81.1953 413.581 82.5936C412.302 83.9924 411.312 85.6351 410.608 87.5227C409.905 89.4103 409.553 91.4695 409.553 93.7003C409.553 95.9312 409.905 97.9904 410.608 99.878C411.312 101.766 412.302 103.409 413.581 104.808C414.859 106.206 416.361 107.296 418.085 108.076C419.81 108.857 421.676 109.247 423.684 109.247Z" fill="black"/>
<path d="M454.585 114.916V72.4444H461.328V108.995H477.545V114.916H454.585Z" fill="black"/>
<path d="M208.063 162.442V119.971H228.964V122.468H209.427L210.869 121.464V142.236L209.427 139.92H227.78V142.391H209.427L210.869 140.074V162.442H208.063Z" fill="black"/>
<path d="M258.959 163.26C255.991 163.26 253.211 162.694 250.619 161.561C248.028 160.429 245.754 158.855 243.798 156.838C241.842 154.822 240.31 152.48 239.203 149.811C238.097 147.143 237.543 144.281 237.543 141.227C237.543 138.155 238.097 135.289 239.203 132.629C240.31 129.97 241.842 127.632 243.798 125.616C245.754 123.599 248.028 122.024 250.619 120.892C253.211 119.759 255.991 119.193 258.959 119.193C261.928 119.193 264.708 119.759 267.299 120.892C269.89 122.024 272.164 123.599 274.12 125.616C276.076 127.632 277.608 129.97 278.715 132.629C279.821 135.289 280.375 138.155 280.375 141.227C280.375 144.281 279.821 147.143 278.715 149.811C277.608 152.48 276.076 154.822 274.12 156.838C272.164 158.855 269.89 160.429 267.299 161.561C264.708 162.694 261.928 163.26 258.959 163.26ZM258.959 160.558C261.533 160.558 263.936 160.06 266.167 159.065C268.397 158.07 270.349 156.688 272.022 154.92C273.695 153.153 275.004 151.103 275.948 148.769C276.892 146.435 277.363 143.921 277.363 141.227C277.363 138.533 276.892 136.019 275.948 133.685C275.004 131.351 273.695 129.3 272.022 127.533C270.349 125.765 268.397 124.384 266.167 123.389C263.936 122.394 261.533 121.896 258.959 121.896C256.402 121.896 254.008 122.394 251.777 123.389C249.547 124.384 247.595 125.765 245.922 127.533C244.248 129.3 242.94 131.351 241.996 133.685C241.052 136.019 240.581 138.533 240.581 141.227C240.581 143.921 241.052 146.435 241.996 148.769C242.94 151.103 244.248 153.153 245.922 154.92C247.595 156.688 249.547 158.07 251.777 159.065C254.008 160.06 256.402 160.558 258.959 160.558Z" fill="black"/>
<path d="M311.24 163.26C308.271 163.26 305.491 162.694 302.9 161.561C300.309 160.429 298.036 158.855 296.079 156.838C294.123 154.822 292.591 152.48 291.485 149.811C290.377 147.143 289.824 144.281 289.824 141.227C289.824 138.155 290.377 135.289 291.485 132.629C292.591 129.97 294.123 127.632 296.079 125.616C298.036 123.599 300.309 122.024 302.9 120.892C305.491 119.759 308.271 119.193 311.24 119.193C314.209 119.193 316.989 119.759 319.58 120.892C322.171 122.024 324.445 123.599 326.401 125.616C328.358 127.632 329.889 129.97 330.995 132.629C332.103 135.289 332.656 138.155 332.656 141.227C332.656 144.281 332.103 147.143 330.995 149.811C329.889 152.48 328.358 154.822 326.401 156.838C324.445 158.855 322.171 160.429 319.58 161.561C316.989 162.694 314.209 163.26 311.24 163.26ZM311.24 160.558C313.814 160.558 316.216 160.06 318.447 159.065C320.678 158.07 322.63 156.688 324.303 154.92C325.976 153.153 327.285 151.103 328.229 148.769C329.172 146.435 329.645 143.921 329.645 141.227C329.645 138.533 329.172 136.019 328.229 133.685C327.285 131.351 325.976 129.3 324.303 127.533C322.63 125.765 320.678 124.384 318.447 123.389C316.216 122.394 313.814 121.896 311.24 121.896C308.683 121.896 306.29 122.394 304.059 123.389C301.828 124.384 299.876 125.765 298.202 127.533C296.53 129.3 295.221 131.351 294.278 133.685C293.334 136.019 292.862 138.533 292.862 141.227C292.862 143.921 293.334 146.435 294.278 148.769C295.221 151.103 296.53 153.153 298.202 154.92C299.876 156.688 301.828 158.07 304.059 159.065C306.29 160.06 308.683 160.558 311.24 160.558Z" fill="black"/>
<path d="M344.579 162.442V119.971H353.614C356.635 119.971 359.445 120.512 362.044 121.593C364.644 122.674 366.914 124.18 368.853 126.11C370.792 128.041 372.306 130.293 373.396 132.867C374.485 135.441 375.03 138.221 375.03 141.207C375.03 144.21 374.49 146.998 373.408 149.572C372.327 152.146 370.813 154.399 368.866 156.329C366.918 158.26 364.644 159.761 362.044 160.834C359.445 161.906 356.635 162.442 353.614 162.442H344.579ZM347.385 159.92H353.434C356.06 159.92 358.505 159.444 360.77 158.491C363.035 157.539 365.017 156.213 366.716 154.514C368.415 152.815 369.741 150.834 370.693 148.568C371.646 146.303 372.121 143.849 372.121 141.207C372.121 138.564 371.65 136.11 370.706 133.845C369.762 131.58 368.437 129.598 366.729 127.899C365.022 126.2 363.035 124.874 360.77 123.922C358.505 122.97 356.06 122.493 353.434 122.493H347.385V159.92Z" fill="black"/>
</svg>
