<svg width="7" height="13" viewBox="0 0 7 13" fill="none" xmlns="http://www.w3.org/2000/svg">
<path fill-rule="evenodd" clip-rule="evenodd" d="M6.85314 5.89517C6.89969 5.93972 6.93663 5.99264 6.96183 6.0509C6.98703 6.10916 7 6.17162 7 6.23469C7 6.29777 6.98703 6.36023 6.96183 6.41849C6.93663 6.47675 6.89969 6.52966 6.85314 6.57421L0.854445 12.3288C0.760579 12.4188 0.633269 12.4694 0.500522 12.4694C0.367775 12.4694 0.240466 12.4188 0.146599 12.3288C0.0527329 12.2387 0 12.1166 0 11.9892C0 11.8619 0.0527329 11.7398 0.146599 11.6497L5.79237 6.23469L0.146599 0.819669C0.0527329 0.729623 0 0.607495 0 0.480151C0 0.352807 0.0527329 0.230679 0.146599 0.140633C0.240466 0.0505872 0.367775 0 0.500522 0C0.633269 0 0.760579 0.0505872 0.854445 0.140633L6.85314 5.89517Z" fill="black"/>
</svg>
